<svg width="256" height="256" viewBox="0 0 256 256" fill="none" xmlns="http://www.w3.org/2000/svg" role="img" aria-label="Sultan">
  <defs>
    <linearGradient id="gold" x1="0" y1="0" x2="1" y2="1">
      <stop offset="0" stop-color="#D7B77A"/>
      <stop offset="0.55" stop-color="#C5A059"/>
      <stop offset="1" stop-color="#8E6F3E"/>
    </linearGradient>
  </defs>
  <rect x="20" y="20" width="216" height="216" rx="56" fill="#000B1A"/>
  <rect x="36" y="36" width="184" height="184" rx="48" fill="#0B1A33" stroke="rgba(255,255,255,0.06)"/>
  <path d="M128 68C151.196 68 170 86.804 170 110V132C170 155.196 151.196 174 128 174C104.804 174 86 155.196 86 132V110C86 86.804 104.804 68 128 68Z" fill="url(#gold)" opacity="0.95"/>
  <path d="M104 124C104 111.85 113.85 102 126 102H130C142.15 102 152 111.85 152 124V132C152 144.15 142.15 154 130 154H126C113.85 154 104 144.15 104 132V124Z" fill="#000B1A" opacity="0.86"/>
  <path d="M92 194H164" stroke="url(#gold)" stroke-width="16" stroke-linecap="round"/>
</svg>

